<svg width="54" height="55" viewBox="0 0 54 55" fill="none" xmlns="http://www.w3.org/2000/svg">
<path d="M50.6422 0.295898H3.38974C1.77176 0.296895 0.460125 1.64118 0.460449 3.29929V51.7043C0.461422 53.3617 1.7737 54.7053 3.39233 54.705H28.8327V33.664H21.9341V25.4282H28.8327V19.3673C28.8327 12.3387 33.0214 8.51305 39.1419 8.51305C42.0735 8.51305 44.5927 8.73688 45.3269 8.83684V16.1829H41.1065C37.7765 16.1829 37.1317 17.8038 37.1317 20.1829V25.4282H45.0935L44.0562 33.664H37.1317V54.705H50.6422C52.2612 54.7053 53.5738 53.3614 53.5741 51.7029C53.5741 51.7026 53.5741 51.7023 53.5741 51.7016V3.29663C53.5734 1.63919 52.2608 0.295566 50.6422 0.295898Z" fill="white"/>
</svg>
