<svg width="32" height="32" viewBox="0 0 32 32" fill="none" xmlns="http://www.w3.org/2000/svg">
<path d="M12.2115 18.7979C12.2115 18.7979 11.1338 22.5433 6.82289 22.5433C2.51197 22.5433 0 19.9535 0 15.8229C0 11.6923 2.61442 9.02459 6.82289 9C9.87578 9 11.7485 10.5654 11.7485 12.2578C11.7485 13.4871 10.8265 14.4132 9.6463 14.4132C8.38827 14.4132 7.36381 13.4625 7.36381 12.2578C7.36381 11.6144 7.59329 11.1022 8.08093 10.6678C8.15879 9.89743 7.41298 9.59009 6.82289 9.59009C5.46241 9.61468 4.99936 10.6432 4.99936 15.8229C4.99936 20.4412 5.35997 21.5681 7.54001 21.5681C10.5396 21.5681 11.8509 18.5644 11.8509 18.5644L12.2115 18.7938V18.7979Z" fill="black"/>
<path d="M13.4653 15.8229C13.4653 11.6677 16.1084 9 20.2636 9C24.4188 9 27.0087 11.6677 27.0087 15.8229C27.0087 19.9781 24.3943 22.5433 20.2636 22.5433C16.133 22.5433 13.4653 19.9535 13.4653 15.8229M21.9315 15.8229C21.9315 10.6391 21.5995 9.53682 20.2636 9.53682C18.9277 9.53682 18.5466 10.6391 18.5466 15.8229C18.5466 21.0067 18.9318 21.9778 20.2636 21.9778C21.5954 21.9778 21.9315 20.8755 21.9315 15.8229" fill="black"/>
<path d="M28.3984 20.7727C28.3984 19.777 29.1934 19.0229 30.1892 19.0229C31.185 19.0229 32.0004 19.777 32.0004 20.7727C32.0004 21.7685 31.185 22.543 30.1892 22.543C29.1934 22.543 28.3984 21.7685 28.3984 20.7727Z" fill="black"/>
</svg>
