<svg width="23" height="23" viewBox="0 0 23 23" fill="none" xmlns="http://www.w3.org/2000/svg">
<path d="M22 11.5C22 14.2848 20.8938 16.9555 18.9246 18.9246C16.9555 20.8938 14.2848 22 11.5 22M22 11.5C22 8.71523 20.8938 6.04451 18.9246 4.07538C16.9555 2.10625 14.2848 1 11.5 1M22 11.5H1M11.5 22C8.71523 22 6.04451 20.8938 4.07538 18.9246C2.10625 16.9555 1 14.2848 1 11.5M11.5 22C13.4332 22 15 17.2983 15 11.5C15 5.70167 13.4332 1 11.5 1M11.5 22C9.56683 22 8 17.2983 8 11.5C8 5.70167 9.56683 1 11.5 1M11.5 1C8.71523 1 6.04451 2.10625 4.07538 4.07538C2.10625 6.04451 1 8.71523 1 11.5" stroke="black" stroke-width="2" stroke-linecap="round" stroke-linejoin="round"/>
</svg>
