<svg width="58" height="57" viewBox="0 0 58 57" fill="none" xmlns="http://www.w3.org/2000/svg">
<path d="M57.4914 16.7582C57.3578 13.7296 56.8679 11.6474 56.1662 9.84319C55.4423 7.92805 54.3286 6.21343 52.8694 4.78806C51.4438 3.34051 49.7175 2.2157 47.8242 1.50323C46.0092 0.801635 43.9375 0.311868 40.9083 0.178334C37.8565 0.033492 36.8876 0 29.1473 0C21.407 0 20.4382 0.033492 17.3976 0.167025C14.3684 0.300559 12.2859 0.790761 10.4817 1.49192C8.56579 2.2157 6.85084 3.3292 5.4252 4.78806C3.97737 6.21343 2.85278 7.93936 2.13975 9.83231C1.43802 11.6474 0.948158 13.7183 0.814599 16.7469C0.669729 19.7982 0.63623 20.7668 0.63623 28.5057C0.63623 36.2445 0.669729 37.2132 0.803288 40.2531C0.936846 43.2817 1.42714 45.3639 2.12887 47.1681C2.85278 49.0833 3.97737 50.7979 5.4252 52.2233C6.85084 53.6708 8.5771 54.7956 10.4704 55.5081C12.2859 56.2097 14.3571 56.6994 17.3868 56.833C20.4269 56.9669 21.3961 57 29.1364 57C36.8768 57 37.8456 56.9669 40.8861 56.833C43.9154 56.6994 45.9979 56.2097 47.802 55.5081C51.6335 54.027 54.6627 50.9984 56.144 47.1681C56.8453 45.353 57.3356 43.2817 57.4692 40.2531C57.6027 37.2132 57.6362 36.2445 57.6362 28.5057C57.6362 20.7668 57.6249 19.7982 57.4914 16.7582ZM52.3574 40.0304C52.2347 42.8142 51.767 44.3174 51.3772 45.3195C50.4193 47.8027 48.4481 49.7735 45.9644 50.7313C44.9621 51.1211 43.4477 51.5886 40.6743 51.7109C37.6672 51.8448 36.7654 51.8779 29.1586 51.8779C21.5519 51.8779 20.6387 51.8448 17.6426 51.7109C14.8583 51.5886 13.3548 51.1211 12.3524 50.7313C11.1165 50.2746 9.99143 49.5508 9.07827 48.6044C8.13162 47.6801 7.4077 46.5666 6.95091 45.3308C6.56111 44.3287 6.09343 42.8142 5.97118 40.0417C5.83719 37.0353 5.80413 36.1331 5.80413 28.5278C5.80413 20.9225 5.83719 20.0095 5.97118 17.0144C6.09343 14.2306 6.56111 12.7274 6.95091 11.7253C7.4077 10.4891 8.13162 9.36473 9.08959 8.45131C10.0136 7.50483 11.1273 6.78105 12.3637 6.32478C13.3661 5.93505 14.8809 5.46747 17.6539 5.34481C20.6609 5.21128 21.5632 5.17779 29.1695 5.17779C36.7876 5.17779 37.6894 5.21128 40.6856 5.34481C43.4699 5.46747 44.9734 5.93505 45.9757 6.32478C47.2117 6.78105 48.3367 7.50483 49.2499 8.45131C50.1965 9.3756 50.9204 10.4891 51.3772 11.7253C51.767 12.7274 52.2347 14.2415 52.3574 17.0144C52.491 20.0209 52.5245 20.9225 52.5245 28.5278C52.5245 36.1331 52.491 37.0239 52.3574 40.0304Z" fill="white"/>
<path d="M29.784 14.25C21.5593 14.25 14.8862 20.6325 14.8862 28.5C14.8862 36.3675 21.5593 42.75 29.784 42.75C38.009 42.75 44.6817 36.3675 44.6817 28.5C44.6817 20.6325 38.009 14.25 29.784 14.25ZM29.784 37.7436C24.4482 37.7436 20.1202 33.6042 20.1202 28.5C20.1202 23.3958 24.4482 19.2564 29.784 19.2564C35.1201 19.2564 39.4477 23.3958 39.4477 28.5C39.4477 33.6042 35.1201 37.7436 29.784 37.7436V37.7436Z" fill="white"/>
<path d="M48.5681 12.9542C48.5681 15.1004 46.8281 16.8406 44.6815 16.8406C42.5355 16.8406 40.7954 15.1004 40.7954 12.9542C40.7954 10.8076 42.5355 9.06787 44.6815 9.06787C46.8281 9.06787 48.5681 10.8076 48.5681 12.9542V12.9542Z" fill="white"/>
</svg>
