<svg width="185" height="77" viewBox="0 0 185 77" fill="none" xmlns="http://www.w3.org/2000/svg">
<path d="M0 66.1367V64.4961C1.79688 64.4049 2.8125 64.2552 3.04688 64.0469C3.28125 63.8385 3.42448 63.3242 3.47656 62.5039C3.56771 60.7852 3.61328 57.582 3.61328 52.8945C3.61328 51.0977 3.58724 48.4935 3.53516 45.082C3.50911 42.7513 3.45703 41.4753 3.37891 41.2539C3.30078 41.0195 3.16406 40.8503 2.96875 40.7461C2.68229 40.6029 1.69271 40.4792 0 40.375V38.7344C2.68229 38.8385 4.73307 38.8906 6.15234 38.8906C8.60026 38.8906 10.8138 38.8385 12.793 38.7344V40.375C11.0221 40.4792 10.0195 40.6224 9.78516 40.8047C9.5638 40.974 9.42057 41.3776 9.35547 42.0156C9.23828 43.2656 9.17969 45.7982 9.17969 49.6133C9.17969 54.6914 9.19922 58.2331 9.23828 60.2383C9.27734 62.2305 9.39453 63.4154 9.58984 63.793C9.66797 63.9622 9.83073 64.099 10.0781 64.2031C10.3385 64.2943 11.2435 64.3919 12.793 64.4961V66.1367L10.4883 66.0781C9.02995 66.026 7.72786 66 6.58203 66L0 66.1367Z" fill="black"/>
<path d="M15.493 66.1172V64.4961C16.9122 64.418 17.713 64.3073 17.8953 64.1641C18.0776 64.0078 18.1883 63.6693 18.2273 63.1484C18.3055 61.8333 18.3445 59.5156 18.3445 56.1953C18.3445 54.5547 18.325 53.1419 18.2859 51.957C18.2599 51.2279 18.2078 50.7982 18.1297 50.668C18.0646 50.5638 17.9604 50.4857 17.8172 50.4336C17.674 50.3815 16.8992 50.3359 15.493 50.2969V48.793C16.1961 48.793 17.2898 48.6432 18.7742 48.3438C20.2716 48.0443 21.5281 47.6992 22.5437 47.3086L23.0711 47.1328C23.2534 47.1328 23.3445 47.2826 23.3445 47.582L23.325 47.7578C23.2859 48.1224 23.2664 49.0599 23.2664 50.5703L26.2937 48.0312C26.6714 47.7057 27.062 47.4844 27.4656 47.3672C28.0385 47.2109 28.7352 47.1328 29.5555 47.1328C30.9357 47.1328 32.062 47.3737 32.9344 47.8555C33.8198 48.3242 34.4643 48.9818 34.868 49.8281C35.2846 50.6615 35.493 51.9635 35.493 53.7344C35.493 54.5156 35.4734 55.4206 35.4344 56.4492C35.3693 58.5586 35.3367 60.3815 35.3367 61.918C35.3367 62.7904 35.4083 63.3958 35.5516 63.7344C35.6557 63.9688 35.799 64.125 35.9812 64.2031C36.1766 64.2812 36.8927 64.3789 38.1297 64.4961V66.1172L35.7273 66.0391L34.1844 66L30.1609 66.1172L29.9461 65.8633C30.2846 63.3893 30.4539 60.8503 30.4539 58.2461C30.4539 54.9388 30.2521 52.901 29.8484 52.1328C29.3276 51.1432 28.3771 50.6484 26.9969 50.6484C26.1115 50.6484 25.3432 50.8763 24.6922 51.332C24.0411 51.7747 23.618 52.25 23.4227 52.7578C23.3315 52.9661 23.2859 53.6237 23.2859 54.7305C23.2859 59.444 23.3055 62.1458 23.3445 62.8359C23.3836 63.513 23.4943 63.9297 23.6766 64.0859C23.9109 64.2812 24.7833 64.418 26.2937 64.4961V66.1172C24.0281 66.0391 22.1141 66 20.5516 66C19.6271 66 17.9409 66.0391 15.493 66.1172Z" fill="black"/>
<path d="M42.5484 59.7695C42.6135 61.4492 42.6982 62.3867 42.8023 62.582C43.0888 63.1159 43.6227 63.5846 44.4039 63.9883C45.1982 64.3919 46.1161 64.5938 47.1578 64.5938C48.4339 64.5938 49.3844 64.3333 50.0094 63.8125C50.6474 63.2917 50.9664 62.6016 50.9664 61.7422C50.9664 61 50.7385 60.4141 50.2828 59.9844C49.8271 59.5547 48.8505 59.1771 47.3531 58.8516C45.0875 58.3568 43.6096 57.9271 42.9195 57.5625C42.2424 57.1849 41.7021 56.6315 41.2984 55.9023C40.8948 55.1732 40.693 54.3008 40.693 53.2852C40.693 52.0872 40.9924 51.026 41.5914 50.1016C42.1904 49.1771 43.0497 48.4544 44.1695 47.9336C45.3023 47.3997 46.7932 47.1328 48.6422 47.1328C50.5693 47.1328 52.3596 47.4453 54.0133 48.0703C53.831 49.125 53.7073 50.7656 53.6422 52.9922H52.0992C52.0211 51.5859 51.9104 50.7591 51.7672 50.5117C51.5719 50.1341 51.2008 49.8151 50.6539 49.5547C49.8987 49.2031 49.0914 49.0273 48.232 49.0273C47.1383 49.0273 46.2854 49.2747 45.6734 49.7695C45.0745 50.2513 44.775 50.8633 44.775 51.6055C44.775 52.2956 45.0484 52.8424 45.5953 53.2461C46.1422 53.6628 47.4443 54.0599 49.5016 54.4375C50.9208 54.6979 51.9039 54.9388 52.4508 55.1602C53.3622 55.5508 54.0523 56.1237 54.5211 56.8789C55.0029 57.6211 55.2438 58.5651 55.2438 59.7109C55.2438 61.9115 54.3909 63.5977 52.6852 64.7695C50.9794 65.9414 48.9482 66.5273 46.5914 66.5273C45.8102 66.5273 44.9443 66.4362 43.9938 66.2539C43.0432 66.0716 42.0081 65.8047 40.8883 65.4531L40.5953 65.1211C40.7516 63.9883 40.8492 62.2044 40.8883 59.7695H42.5484Z" fill="black"/>
<path d="M57.4555 50.4336L60.0531 48.7344C60.0271 46.4297 59.9685 44.4115 59.8773 42.6797C61.6482 42.1328 63.3214 41.4688 64.8969 40.6875L65.4828 41.1367C65.1964 43.0247 65.001 45.5573 64.8969 48.7344C65.4958 48.8255 66.0883 48.8711 66.6742 48.8711C68.0023 48.8711 69.1937 48.7865 70.2484 48.6172L70.4242 48.7344L70.2484 49.4375C70.0531 50.1667 69.9099 50.8372 69.8187 51.4492C68.2953 51.332 67.1755 51.2734 66.4594 51.2734C65.9255 51.2734 65.4047 51.306 64.8969 51.3711C64.8708 52.6862 64.8578 53.8451 64.8578 54.8477C64.8578 59.2227 64.988 61.7096 65.2484 62.3086C65.5089 62.9076 66.1273 63.207 67.1039 63.207C67.3904 63.207 67.6964 63.1745 68.0219 63.1094C68.3604 63.0443 68.7185 62.9531 69.0961 62.8359L69.4281 63.5781C68.6469 64.4505 67.8852 65.3555 67.143 66.293C66.6612 66.3711 66.2185 66.4297 65.8148 66.4688C65.4112 66.5078 65.0401 66.5273 64.7016 66.5273C63.6078 66.5273 62.6898 66.3385 61.9477 65.9609C61.2185 65.5833 60.6846 65.0951 60.3461 64.4961C60.0206 63.8971 59.8578 63.0052 59.8578 61.8203C59.8578 61.1953 59.8904 59.5547 59.9555 56.8984C60.0206 54.5677 60.0531 52.7253 60.0531 51.3711L59.057 51.332C58.6404 51.332 58.1065 51.3711 57.4555 51.4492V50.4336Z" fill="black"/>
<path d="M89.6477 64.4961V66.1172L88.1438 66.0586C87.3495 66.0195 86.5552 66 85.7609 66C84.537 66 83.3781 66.0391 82.2844 66.1172L82.0891 65.9023L82.2844 63.207L78.2023 66.2734C77.4732 66.4427 76.8286 66.5273 76.2688 66.5273C74.8885 66.5273 73.8208 66.1172 73.0656 65.2969C72.3104 64.4766 71.9328 63.2786 71.9328 61.7031C71.9328 59.763 72.4471 58.3958 73.4758 57.6016C74.8039 56.5599 77.7401 55.6289 82.2844 54.8086C82.2583 53.2721 81.9914 52.1589 81.4836 51.4688C80.7675 50.5182 79.6607 50.043 78.1633 50.043C77.8117 50.043 77.4471 50.0885 77.0695 50.1797C76.705 50.2578 76.3339 50.388 75.9563 50.5703L75.0773 52.6602L73.7297 52.3281L73.7688 51.4492L73.7492 50.5898L73.7297 49.8086C75.7219 48.5716 77.1542 47.7969 78.0266 47.4844C78.6646 47.25 79.55 47.1328 80.6828 47.1328C82.2193 47.1328 83.4693 47.3672 84.4328 47.8359C85.3964 48.2917 86.0995 48.9167 86.5422 49.7109C86.9849 50.5052 87.2063 51.6641 87.2063 53.1875C87.2063 53.8255 87.1802 54.9648 87.1281 56.6055C87.076 58.2982 87.05 59.6589 87.05 60.6875C87.05 62.3151 87.0956 63.3047 87.1867 63.6562C87.2388 63.8646 87.3625 64.0273 87.5578 64.1445C87.7661 64.2617 88.4628 64.3789 89.6477 64.4961ZM82.2844 56.4883C79.9927 56.9831 78.5018 57.5234 77.8117 58.1094C77.1216 58.6823 76.7766 59.457 76.7766 60.4336C76.7766 61.2279 76.9979 61.8529 77.4406 62.3086C77.8833 62.7643 78.4432 62.9922 79.1203 62.9922C80.149 62.9922 81.2036 62.4128 82.2844 61.2539V56.4883Z" fill="black"/>
<path d="M112.055 51.0781H108.812C108.995 51.7161 109.086 52.3086 109.086 52.8555C109.086 55.2513 108.227 57.0352 106.508 58.207C104.802 59.3789 102.803 59.9648 100.512 59.9648C100.147 59.9648 99.6133 59.9388 98.9102 59.8867C98.3112 60.2383 97.9271 60.5182 97.7578 60.7266C97.6016 60.9349 97.5234 61.1693 97.5234 61.4297C97.5234 62.0547 97.9596 62.4323 98.832 62.5625C99.3138 62.6406 101.957 62.6797 106.762 62.6797C108.376 62.6797 109.49 62.8229 110.102 63.1094C110.727 63.3828 111.241 63.8776 111.645 64.5938C112.048 65.3099 112.25 66.2344 112.25 67.3672C112.25 69.9844 111.215 72.1784 109.145 73.9492C107.074 75.7201 104.275 76.6055 100.746 76.6055C97.7513 76.6055 95.5182 76.0781 94.0469 75.0234C92.5755 73.9818 91.8398 72.6471 91.8398 71.0195C91.8398 70.082 92.0677 69.3008 92.5234 68.6758C92.7318 68.3893 93.4479 67.8945 94.6719 67.1914L96.0781 66.3906C95.0234 66.1823 94.3203 65.9089 93.9688 65.5703C93.6172 65.2188 93.4414 64.724 93.4414 64.0859C93.4414 63.3958 93.6953 62.5495 94.2031 61.5469L94.8477 61.1367C95.5898 60.6549 96.293 60.1341 96.957 59.5742C95.4596 59.0404 94.3789 58.3177 93.7148 57.4062C93.0508 56.4948 92.7188 55.349 92.7188 53.9688C92.7188 51.9766 93.487 50.3424 95.0234 49.0664C96.5599 47.7773 98.7148 47.1328 101.488 47.1328C102.855 47.1328 104.06 47.2695 105.102 47.543C105.87 47.7513 106.638 48.1224 107.406 48.6562C110.271 48.6693 112.139 48.6237 113.012 48.5195L113.344 48.9297C112.992 49.4245 112.562 50.1406 112.055 51.0781ZM97.7578 52.7188C97.7578 54.6719 98.0443 56.0456 98.6172 56.8398C99.2031 57.6341 100.036 58.0312 101.117 58.0312C102.107 58.0312 102.875 57.6862 103.422 56.9961C103.969 56.293 104.242 55.1992 104.242 53.7148C104.242 52.0872 103.956 50.9023 103.383 50.1602C102.823 49.418 102.029 49.0469 101 49.0469C100.01 49.0469 99.2227 49.3724 98.6367 50.0234C98.0508 50.6615 97.7578 51.5599 97.7578 52.7188ZM98.2266 66.625C97.1328 67.4323 96.4167 68.1029 96.0781 68.6367C95.7526 69.1706 95.5898 69.7826 95.5898 70.4727C95.5898 71.7227 96.0781 72.7318 97.0547 73.5C98.0312 74.2812 99.4701 74.6719 101.371 74.6719C102.738 74.6719 103.904 74.457 104.867 74.0273C105.831 73.5977 106.553 73.0052 107.035 72.25C107.517 71.4948 107.758 70.6549 107.758 69.7305C107.758 68.8841 107.562 68.168 107.172 67.582C106.885 67.1784 106.488 66.918 105.98 66.8008C105.486 66.6836 104.04 66.625 101.645 66.625H98.2266Z" fill="black"/>
<path d="M113.602 66.1172V64.4961C114.917 64.431 115.673 64.3529 115.868 64.2617C116.024 64.1836 116.148 64.0599 116.239 63.8906C116.382 63.5781 116.467 62.888 116.493 61.8203C116.545 59.9193 116.571 58.1875 116.571 56.625C116.571 53.6172 116.532 51.8333 116.454 51.2734C116.415 50.9479 116.298 50.7201 116.102 50.5898C115.907 50.4466 115.074 50.349 113.602 50.2969V48.793C116.233 48.5456 118.114 48.2396 119.247 47.875L121.259 47.1328C121.441 47.1328 121.532 47.2565 121.532 47.5039L121.512 47.7773C121.46 48.5977 121.434 49.776 121.434 51.3125C122.098 50.6745 122.834 49.8672 123.641 48.8906C124.24 48.1615 124.761 47.6862 125.204 47.4648C125.647 47.2435 126.239 47.1328 126.981 47.1328C127.398 47.1328 127.821 47.2044 128.251 47.3477C128.134 48.6497 128.055 50.4206 128.016 52.6602L127.137 52.9727C126.838 52.4648 126.506 52.1133 126.141 51.918C125.79 51.7096 125.328 51.6055 124.755 51.6055C123.973 51.6055 123.303 51.8073 122.743 52.2109C122.183 52.6146 121.825 53.0768 121.669 53.5977C121.565 53.9883 121.512 55.3164 121.512 57.582C121.512 60.8763 121.558 62.7969 121.649 63.3438C121.701 63.7083 121.825 63.9557 122.02 64.0859C122.32 64.2812 123.303 64.418 124.97 64.4961V66.1172L122.782 66.0586C121.389 66.0195 120.184 66 119.169 66C118.205 66 117.085 66.0195 115.809 66.0586L113.602 66.1172Z" fill="black"/>
<path d="M148.099 64.4961V66.1172L146.595 66.0586C145.801 66.0195 145.007 66 144.212 66C142.989 66 141.83 66.0391 140.736 66.1172L140.541 65.9023L140.736 63.207L136.654 66.2734C135.925 66.4427 135.28 66.5273 134.72 66.5273C133.34 66.5273 132.272 66.1172 131.517 65.2969C130.762 64.4766 130.384 63.2786 130.384 61.7031C130.384 59.763 130.899 58.3958 131.927 57.6016C133.255 56.5599 136.192 55.6289 140.736 54.8086C140.71 53.2721 140.443 52.1589 139.935 51.4688C139.219 50.5182 138.112 50.043 136.615 50.043C136.263 50.043 135.899 50.0885 135.521 50.1797C135.157 50.2578 134.785 50.388 134.408 50.5703L133.529 52.6602L132.181 52.3281L132.22 51.4492L132.201 50.5898L132.181 49.8086C134.173 48.5716 135.606 47.7969 136.478 47.4844C137.116 47.25 138.002 47.1328 139.134 47.1328C140.671 47.1328 141.921 47.3672 142.884 47.8359C143.848 48.2917 144.551 48.9167 144.994 49.7109C145.436 50.5052 145.658 51.6641 145.658 53.1875C145.658 53.8255 145.632 54.9648 145.58 56.6055C145.528 58.2982 145.502 59.6589 145.502 60.6875C145.502 62.3151 145.547 63.3047 145.638 63.6562C145.69 63.8646 145.814 64.0273 146.009 64.1445C146.218 64.2617 146.914 64.3789 148.099 64.4961ZM140.736 56.4883C138.444 56.9831 136.953 57.5234 136.263 58.1094C135.573 58.6823 135.228 59.457 135.228 60.4336C135.228 61.2279 135.449 61.8529 135.892 62.3086C136.335 62.7643 136.895 62.9922 137.572 62.9922C138.601 62.9922 139.655 62.4128 140.736 61.2539V56.4883Z" fill="black"/>
<path d="M150.37 66.1172V64.4961C151.724 64.444 152.492 64.3594 152.674 64.2422C152.87 64.112 152.993 63.8841 153.045 63.5586C153.149 62.9206 153.202 61.4102 153.202 59.0273C153.202 54.0143 153.136 51.2995 153.006 50.8828C152.902 50.5312 152.446 50.349 151.639 50.3359L150.37 50.2969V48.793C151.971 48.6237 153.338 48.4154 154.471 48.168C155.604 47.9076 156.626 47.5951 157.538 47.2305C157.72 47.1654 157.857 47.1328 157.948 47.1328C158.13 47.1328 158.221 47.2956 158.221 47.6211C158.221 47.8685 158.202 48.2005 158.163 48.6172C158.136 48.7995 158.123 49.125 158.123 49.5938V50.2969L161.327 47.8945C162.004 47.3867 163.032 47.1328 164.413 47.1328C165.806 47.1328 166.913 47.4062 167.733 47.9531C168.553 48.487 169.178 49.3464 169.608 50.5312L172.928 47.8945C173.566 47.3867 174.458 47.1328 175.604 47.1328C177.648 47.1328 179.152 47.6341 180.116 48.6367C181.079 49.6393 181.561 51.2669 181.561 53.5195L181.522 55.1406C181.47 56.9375 181.444 58.5391 181.444 59.9453C181.444 61.8073 181.502 63.0117 181.62 63.5586C181.698 63.8581 181.828 64.0729 182.01 64.2031C182.205 64.3203 182.941 64.418 184.217 64.4961V66.1172C182.59 66.0391 181.17 66 179.959 66C178.788 66 177.57 66.0391 176.307 66.1172L176.073 65.7461C176.424 62.9466 176.6 60.2122 176.6 57.543C176.6 54.3789 176.353 52.4062 175.858 51.625C175.376 50.8307 174.517 50.4336 173.28 50.4336C172.472 50.4336 171.763 50.6354 171.151 51.0391C170.539 51.4427 170.135 51.9049 169.94 52.4258C169.81 52.7904 169.745 53.9297 169.745 55.8438C169.745 59.2812 169.79 61.6576 169.881 62.9727C169.92 63.5586 170.038 63.9362 170.233 64.1055C170.441 64.2617 171.274 64.3919 172.733 64.4961V66.1172C171.027 66.0391 169.354 66 167.713 66C165.669 66 163.833 66.0391 162.205 66.1172V64.4961C163.495 64.4961 164.25 64.3138 164.471 63.9492C164.692 63.5716 164.803 61.9375 164.803 59.0469C164.803 55.7526 164.738 53.7018 164.608 52.8945C164.478 52.0872 164.159 51.4753 163.651 51.0586C163.156 50.6419 162.466 50.4336 161.58 50.4336C160.929 50.4336 160.337 50.5833 159.803 50.8828C159.269 51.1823 158.82 51.6055 158.455 52.1523C158.247 52.4518 158.143 52.9141 158.143 53.5391L158.163 54.2812C158.202 54.6458 158.221 55.668 158.221 57.3477L158.202 59.6523C158.202 61.8659 158.241 63.1745 158.319 63.5781C158.358 63.8385 158.462 64.0273 158.631 64.1445C158.814 64.2617 159.53 64.3789 160.78 64.4961V66.1172C159.217 66.0391 157.505 66 155.643 66C154.992 66 153.234 66.0391 150.37 66.1172Z" fill="black"/>
<path d="M106.605 8.52611C106.537 6.98522 106.288 5.92587 105.931 5.00794C105.563 4.03357 104.996 3.16122 104.254 2.43603C103.528 1.69956 102.65 1.12728 101.687 0.7648C100.763 0.407849 99.7092 0.158669 98.168 0.0907315C96.6153 0.0170398 96.1224 0 92.1844 0C88.2463 0 87.7534 0.0170398 86.2064 0.0849778C84.6653 0.152916 83.6057 0.402317 82.6878 0.759047C81.713 1.12728 80.8405 1.6938 80.1152 2.43603C79.3786 3.16122 78.8064 4.03932 78.4437 5.0024C78.0866 5.92587 77.8374 6.97947 77.7695 8.52035C77.6958 10.0727 77.6787 10.5656 77.6787 14.5029C77.6787 18.4402 77.6958 18.933 77.7637 20.4796C77.8317 22.0205 78.0811 23.0799 78.4381 23.9978C78.8064 24.9722 79.3786 25.8445 80.1152 26.5697C80.8405 27.3062 81.7188 27.8785 82.6821 28.241C83.6057 28.5979 84.6595 28.8471 86.2009 28.915C87.7476 28.9832 88.2408 29 92.1788 29C96.1169 29 96.6098 28.9832 98.1567 28.915C99.6979 28.8471 100.757 28.5979 101.675 28.241C103.625 27.4874 105.166 25.9466 105.92 23.9978C106.276 23.0743 106.526 22.0205 106.594 20.4796C106.662 18.933 106.679 18.4402 106.679 14.5029C106.679 10.5656 106.673 10.0727 106.605 8.52611ZM103.993 20.3663C103.931 21.7826 103.693 22.5474 103.494 23.0573C103.007 24.3207 102.004 25.3234 100.74 25.8107C100.23 26.009 99.46 26.2469 98.0489 26.309C96.519 26.3772 96.0602 26.394 92.1901 26.394C88.32 26.394 87.8554 26.3772 86.3311 26.309C84.9145 26.2469 84.1495 26.009 83.6396 25.8107C83.0108 25.5783 82.4384 25.2101 81.9738 24.7285C81.4922 24.2583 81.1238 23.6918 80.8914 23.0631C80.6931 22.5532 80.4552 21.7826 80.393 20.3721C80.3248 18.8425 80.308 18.3835 80.308 14.5142C80.308 10.6448 80.3248 10.1803 80.393 8.65645C80.4552 7.24015 80.6931 6.47535 80.8914 5.96549C81.1238 5.33656 81.4922 4.76451 81.9795 4.29979C82.4497 3.81825 83.0163 3.45001 83.6453 3.21787C84.1553 3.01959 84.926 2.7817 86.3368 2.71929C87.8667 2.65135 88.3258 2.63431 92.1956 2.63431C96.0715 2.63431 96.5303 2.65135 98.0547 2.71929C99.4713 2.7817 100.236 3.01959 100.746 3.21787C101.375 3.45001 101.947 3.81825 102.412 4.29979C102.894 4.77004 103.262 5.33656 103.494 5.96549C103.693 6.47535 103.931 7.24568 103.993 8.65645C104.061 10.186 104.078 10.6448 104.078 14.5142C104.078 18.3835 104.061 18.8367 103.993 20.3663Z" fill="black"/>
<path d="M92.1787 7.03027C88.0549 7.03027 84.709 10.3759 84.709 14.5C84.709 18.624 88.0549 21.9697 92.1787 21.9697C96.3027 21.9697 99.6484 18.624 99.6484 14.5C99.6484 10.3759 96.3027 7.03027 92.1787 7.03027ZM92.1787 19.3454C89.5034 19.3454 87.3333 17.1755 87.3333 14.5C87.3333 11.8244 89.5034 9.65456 92.1787 9.65456C94.8542 9.65456 97.0241 11.8244 97.0241 14.5C97.0241 17.1755 94.8542 19.3454 92.1787 19.3454V19.3454Z" fill="black"/>
<path d="M101.406 7.03028C101.406 8.00087 100.619 8.78786 99.6481 8.78786C98.6776 8.78786 97.8906 8.00087 97.8906 7.03028C97.8906 6.05947 98.6776 5.27271 99.6481 5.27271C100.619 5.27271 101.406 6.05947 101.406 7.03028V7.03028Z" fill="black"/>
</svg>
