<svg width="389" height="199" viewBox="0 0 389 199" fill="none" xmlns="http://www.w3.org/2000/svg">
<path d="M130.388 53.5053C126.992 59.6688 121.271 65.2045 113.952 65.2045C105.463 65.2045 100.555 59.84 100.555 49.482V22.9592L95.647 22.6881V20.3626L100.555 20.6336V11.3457C111.712 11.3457 116.006 5.62451 116.006 5.62451H117.704V20.7192C120.829 20.7192 123.868 20.548 127.534 20.3626V22.6881C123.782 22.9592 120.929 23.0448 117.704 23.1304V53.862C117.704 56.9009 119.131 58.7699 121.542 58.7699C125.38 58.7699 128.775 53.5053 128.775 53.5053H130.388Z" fill="black"/>
<path d="M187.272 62.3478V64.6734C179.225 63.96 171.022 63.96 162.804 64.6734V62.3478C164.059 62.2622 165.215 62.0767 166.47 62.0767L166.199 29.7472C166.199 26.9793 164.858 24.8392 161.562 24.8392C157.896 24.8392 155.228 27.1648 153.887 28.6771V62.0767L157.553 62.3478V64.6734C149.421 63.96 141.289 63.96 133.085 64.6734V62.3478C134.34 62.2622 135.496 62.0767 136.752 62.0767V8.04672C135.496 8.04672 134.34 7.96111 133.085 7.77564V5.45008C139.42 6.07784 145.854 6.16344 152.289 0H153.901V26.8795C156.754 23.1272 162.119 18.3905 170.066 18.3905C178.64 18.3905 183.648 23.8405 183.648 34.1129V62.0625L187.315 62.3335L187.272 62.3478Z" fill="black"/>
<path d="M209.955 40.1907V41.7886C209.955 57.8678 211.21 61.7913 218.801 61.7913C229.244 61.7913 233.81 51.3477 233.81 51.3477L235.065 52.1466C235.065 52.1466 231.313 65.1869 216.304 65.1869C201.295 65.1869 192.549 56.17 192.549 41.7886C192.549 27.4073 201.209 18.6614 215.148 18.0337H216.304C228.987 18.476 235.322 26.6083 236.392 39.2063V40.1907H209.955V40.1907ZM209.955 38.0506H220.941C220.755 23.7548 219.599 20.3592 215.847 20.1024C211.824 20.3735 210.226 23.7691 209.955 38.0506Z" fill="black"/>
<path d="M50.0922 110.726C50.0066 124.394 43.6577 134.21 32.8574 134.21C25.6239 134.21 20.8016 128.232 20.8016 128.232V148.42L24.4683 148.691V151.017C16.336 150.303 8.21792 150.303 0 151.017V148.691C1.25552 148.605 2.41116 148.42 3.66668 148.42V91.9788C2.41116 91.9788 1.25552 91.8932 0 91.7078V89.3822C6.33465 89.6533 12.7692 89.6533 19.2037 87.4133H20.8159V93.0346C20.8159 93.0346 25.6382 87.0566 32.8717 87.0566C43.6863 87.0566 50.0209 96.8868 50.1065 110.541V110.726H50.0922ZM32.4009 110.64C32.4009 98.3991 31.2452 92.0644 26.323 92.0644C21.4008 92.0644 20.7874 97.7856 20.7874 97.7856V123.509C20.7874 123.509 21.4151 129.231 26.323 129.231C31.231 129.231 32.4009 122.896 32.4009 110.655" fill="black"/>
<path d="M81.0821 131.357V133.682C72.9498 132.969 64.8317 132.969 56.6138 133.682V131.357C57.8693 131.271 59.0249 131.086 60.2804 131.086V77.0555C59.0249 77.0555 57.8693 76.9699 56.6138 76.7844V74.4589C62.9484 75.0866 69.3829 75.1722 75.8175 69.0088H77.4297V131.086L81.0963 131.357H81.0821Z" fill="black"/>
<path d="M102.511 108.315C106.178 108.315 109.217 109.299 111.171 110.284V94.4756C111.171 91.5366 110.629 88.6688 105.807 88.6688C100.984 88.6688 99.4721 91.5223 99.4721 91.5223C102.24 93.2201 104.023 95.5456 104.023 97.8569C104.023 101.695 100.813 104.905 96.5188 104.905C92.2244 104.905 89.7276 101.695 89.7276 97.8569C89.7276 91.1513 97.5032 87.0566 107.419 87.0566C122.685 87.0566 128.32 94.2045 128.32 103.407V124.308C128.32 127.162 129.476 128.688 131.63 128.688C134.484 128.688 135.212 126.006 135.212 126.006H136.367C136.367 126.006 134.755 134.224 124.582 134.224C117.791 134.224 114.139 132.626 112.341 129.131C111.086 131.185 107.961 134.224 101.084 134.224C91.7963 134.224 86.5317 129.844 86.5317 121.184C86.5317 113.137 92.7808 108.315 102.525 108.315M108.96 129.216C110.301 129.216 111.285 128.674 111.899 128.061C111.457 126.448 111.186 124.579 111.186 122.439V111.625H110.643C105.279 111.625 102.697 115.377 102.697 120.556C102.697 126.006 105.022 129.216 108.946 129.216" fill="black"/>
<path d="M193.521 131.358V133.683C185.389 132.97 177.271 132.97 169.053 133.683V131.358L172.448 131.086V98.3146C172.448 95.5468 171.107 93.4067 167.811 93.4067C164.245 93.4067 161.648 95.6466 160.221 97.159V131.101C161.477 131.101 162.718 131.286 163.973 131.372V133.697C155.841 132.984 147.723 132.984 139.505 133.697V131.372L143.072 131.101V91.98C141.816 91.98 140.661 91.8944 139.405 91.7089V89.3833C141.017 89.4689 142.715 89.4689 144.313 89.4689C149.05 89.4689 153.872 89.1123 158.609 87.4145H160.221V95.3613C163.075 91.609 168.439 86.9722 176.3 86.9722C184.789 86.9722 189.697 92.4223 189.697 102.695V131.001C190.953 131.086 192.294 131.272 193.535 131.358" fill="black"/>
<path d="M249.961 131.358V133.683C241.829 132.97 233.711 132.97 225.493 133.683V131.358L228.889 131.086V98.3146C228.889 95.5468 227.547 93.4067 224.252 93.4067C220.685 93.4067 218.088 95.6466 216.662 97.159V131.101C217.917 131.101 219.158 131.286 220.414 131.372V133.697C212.282 132.984 204.164 132.984 195.946 133.697V131.372L199.512 131.101V91.98C198.257 91.98 197.101 91.8944 195.846 91.7089V89.3833C197.458 89.4689 199.156 89.4689 200.754 89.4689C205.49 89.4689 210.313 89.1123 215.049 87.4145H216.662V95.3613C219.515 91.609 224.88 86.9722 232.741 86.9722C241.23 86.9722 246.138 92.4223 246.138 102.695V131.001C247.393 131.086 248.734 131.272 249.976 131.358" fill="black"/>
<path d="M276.315 131.358V133.684C268.183 132.97 260.065 132.97 251.847 133.684V131.358C253.088 131.273 254.258 131.087 255.513 131.087V91.9664C254.258 91.9664 253.102 91.8808 251.847 91.6953V89.3698C258.181 89.6409 264.616 89.6409 271.05 87.4009H272.663V131.073L276.329 131.344L276.315 131.358ZM254.429 75.3594C254.429 70.3516 258.452 66.5137 263.546 66.5137C268.639 66.5137 272.648 70.3516 272.648 75.3594C272.648 80.3672 268.539 84.3762 263.546 84.3762C258.552 84.3762 254.429 80.4528 254.429 75.3594Z" fill="black"/>
<path d="M337.034 131.358V133.683C328.901 132.97 320.783 132.97 312.565 133.683V131.358L315.961 131.086V98.3146C315.961 95.5468 314.62 93.4067 311.324 93.4067C307.757 93.4067 305.161 95.6466 303.734 97.159V131.101C304.989 131.101 306.231 131.286 307.486 131.372V133.697C299.354 132.984 291.222 132.984 283.018 133.697V131.372L286.585 131.101V91.98C285.329 91.98 284.173 91.8944 282.918 91.7089V89.3833C284.53 89.4689 286.228 89.4689 287.826 89.4689C292.563 89.4689 297.385 89.1123 302.122 87.4145H303.734V95.3613C306.587 91.609 311.952 86.9722 319.813 86.9722C328.302 86.9722 333.21 92.4223 333.21 102.695V131.001C334.465 131.086 335.807 131.272 337.048 131.358" fill="black"/>
<path d="M386.243 144.855V145.297C386.157 150.034 385.344 152.887 384.188 154.942C383.118 156.811 381.063 158.066 378.738 158.066C375.257 158.066 372.489 155.213 372.489 151.817C372.489 148.421 375.257 145.482 378.738 145.482C380.878 145.482 382.761 146.552 383.831 148.165C384.459 147.537 384.63 146.909 384.63 146.296C384.545 144.056 382.305 142.986 378.824 142.986H353.456C345.238 142.986 341.657 140.389 341.657 134.325C341.657 129.418 344.611 124.495 348.805 122.355C342.2 119.316 338.447 113.51 338.447 105.919C338.447 94.4913 347.207 87.0724 361.218 87.0724C368.18 87.0724 373.816 88.8558 377.739 92.1658C379.166 91.3668 380.322 90.1113 380.322 88.7702C380.322 86.9868 379.252 86.6301 379.252 86.6301C375.856 86.0023 373.63 83.1489 373.63 79.5678C373.63 75.3732 376.855 72.4199 380.778 72.4199C384.702 72.4199 388.012 75.5444 388.012 79.3823C388.012 85.5458 383.731 90.7248 379.252 93.4926C382.29 96.7028 383.903 100.897 383.903 105.905C383.903 117.519 375.242 124.752 361.218 124.752C357.294 124.752 353.713 124.124 350.674 123.054C349.248 123.682 347.635 124.752 347.635 126.536C347.635 128.048 348.349 129.032 351.573 129.032H372.475C380.065 129.032 386.057 133.498 386.228 144.569V144.84L386.243 144.855ZM355.511 105.919C355.511 119.944 356.852 122.983 361.232 122.983C365.869 122.983 366.853 119.944 366.853 105.919C366.853 91.8947 365.869 88.9556 361.232 88.9556C356.852 88.9556 355.511 91.909 355.511 105.919" fill="black"/>
<path d="M316.775 185.96C316.775 185.96 313.023 199 298.014 199C283.005 199 274.259 189.983 274.259 175.602C274.259 161.22 283.361 151.932 298.014 151.847C308.643 151.847 315.163 157.297 315.163 163.189C315.163 167.469 311.953 170.694 307.844 170.694C303.464 170.694 299.897 167.384 299.897 163.189C299.897 160.949 300.696 159.166 302.394 157.653C302.665 154.971 300.068 153.901 298.014 153.901C293.277 153.987 291.665 157.568 291.665 175.602C291.665 191.681 292.92 195.604 300.51 195.604C310.954 195.604 315.52 185.146 315.52 185.146L316.775 185.945V185.96Z" fill="black"/>
<path d="M321.14 175.602C321.14 161.135 330.342 151.847 344.809 151.847C359.276 151.847 368.293 161.135 368.293 175.602C368.293 190.069 359.191 199 344.809 199C330.428 199 321.14 189.983 321.14 175.602M350.616 175.602C350.616 157.554 349.461 153.716 344.809 153.716C340.158 153.716 338.831 157.554 338.831 175.602C338.831 193.65 340.173 197.031 344.809 197.031C349.446 197.031 350.616 193.193 350.616 175.602" fill="black"/>
<path d="M373.131 192.835C373.131 189.368 375.899 186.743 379.366 186.743C382.833 186.743 385.672 189.368 385.672 192.835C385.672 196.302 382.833 198.998 379.366 198.998C375.899 198.998 373.131 196.302 373.131 192.835Z" fill="black"/>
</svg>
