<svg width="29" height="24" viewBox="0 0 29 24" fill="none" xmlns="http://www.w3.org/2000/svg">
<path fill-rule="evenodd" clip-rule="evenodd" d="M1.14133 1.20658C1.87571 0.437194 2.87726 0 3.92715 0H25.0729C26.1227 0 27.1243 0.437194 27.8587 1.20658C28.5922 1.97508 28.9999 3.01199 28.9999 4.08791V5.65687C29 5.6653 29 5.67372 28.9999 5.68214V19.9121C28.9999 20.988 28.5922 22.0249 27.8587 22.7934C27.1243 23.5628 26.1227 24 25.0729 24H3.92715C2.87725 24 1.87571 23.5628 1.14133 22.7934C0.407805 22.0249 8.5562e-05 20.988 8.5562e-05 19.9121V5.6822C-2.84126e-05 5.67374 -2.86287e-05 5.66527 8.5562e-05 5.65681V4.08791C8.5562e-05 3.01199 0.407804 1.97508 1.14133 1.20658ZM1.81257 7.42255V19.9121C1.81257 20.5149 2.04138 21.088 2.44088 21.5065C2.83953 21.9242 3.3747 22.1538 3.92715 22.1538H25.0729C25.6253 22.1538 26.1605 21.9242 26.5591 21.5065C26.9586 21.088 27.1874 20.5149 27.1874 19.9121V7.42254L16.6893 14.7549C16.6892 14.755 16.6894 14.7549 16.6893 14.7549C16.0435 15.2063 15.2814 15.4491 14.5 15.4491C13.7186 15.4491 12.9568 15.2065 12.3109 14.7551C12.3109 14.7551 12.311 14.7552 12.3109 14.7551L1.81257 7.42255ZM27.1874 5.18405L15.664 13.2326C15.3171 13.475 14.912 13.6029 14.5 13.6029C14.088 13.6029 13.6831 13.4752 13.3362 13.2327L1.81257 5.18405V4.08791C1.81257 3.4851 2.04138 2.91204 2.44088 2.49349C2.83953 2.07583 3.3747 1.84615 3.92715 1.84615H25.0729C25.6253 1.84615 26.1605 2.07583 26.5591 2.49349C26.9586 2.91204 27.1874 3.4851 27.1874 4.08791V5.18405Z" fill="white"/>
</svg>
