<svg width="29" height="29" viewBox="0 0 29 29" fill="none" xmlns="http://www.w3.org/2000/svg">
<path fill-rule="evenodd" clip-rule="evenodd" d="M3.92708 1.8125C3.36626 1.8125 2.82841 2.03529 2.43185 2.43185C2.03529 2.82841 1.8125 3.36626 1.8125 3.92708V5.4375C1.8125 17.4493 11.5507 27.1875 23.5625 27.1875H25.0729C25.6337 27.1875 26.1716 26.9647 26.5682 26.5682C26.9647 26.1716 27.1875 25.6337 27.1875 25.0729V20.1203C27.1875 19.9934 27.1476 19.8695 27.0735 19.7666C26.9993 19.6637 26.8946 19.5868 26.7742 19.5467L19.9885 17.2843C19.8505 17.2384 19.7006 17.2438 19.5664 17.2995C19.4321 17.3552 19.3224 17.4575 19.2574 17.5875L17.5503 20.9972C17.3325 21.4322 16.8101 21.6177 16.3668 21.4174C12.4675 19.6556 9.34443 16.5325 7.58263 12.6332C7.38232 12.1899 7.56777 11.6675 8.00277 11.4497L11.4118 9.74292C11.5418 9.67795 11.6448 9.56792 11.7005 9.43364C11.7562 9.29936 11.7616 9.1495 11.7157 9.01154L9.4534 2.22601C9.41335 2.10576 9.3364 2.00088 9.23361 1.92672C9.1309 1.85261 9.00749 1.81265 8.88084 1.8125H3.92708ZM1.15022 1.15022C1.88669 0.413745 2.88556 0 3.92708 0H8.88125C9.38825 0.000385247 9.88298 0.160216 10.2941 0.456871C10.7052 0.753471 11.0126 1.17182 11.1728 1.65274C11.1729 1.65282 11.1728 1.65265 11.1728 1.65274L13.4355 8.43904C13.6189 8.99086 13.5974 9.59109 13.3746 10.1282C13.1519 10.6651 12.7431 11.1037 12.2232 11.3636L9.61441 12.6698C11.1096 15.545 13.455 17.8904 16.3302 19.3856L17.636 16.7775C17.896 16.2576 18.3349 15.8481 18.8718 15.6254C19.4089 15.4026 20.0084 15.3809 20.5602 15.5643L27.347 17.8271C27.3471 17.8271 27.3469 17.827 27.347 17.8271C27.8283 17.9874 28.2472 18.2953 28.5438 18.7068C28.8405 19.1184 29.0001 19.6129 29 20.1203C29 20.1203 29 20.1202 29 20.1203V25.0729C29 26.1144 28.5863 27.1133 27.8498 27.8498C27.1133 28.5863 26.1144 29 25.0729 29H23.5625C10.5497 29 0 18.4503 0 5.4375V3.92708C0 2.88556 0.413745 1.88669 1.15022 1.15022Z" fill="white"/>
</svg>
