<svg width="454" height="59" viewBox="0 0 454 59" fill="none" xmlns="http://www.w3.org/2000/svg">
<path d="M22.3875 36.0911C20.1963 40.0603 16.5145 43.6344 11.7999 43.6344C6.33099 43.6344 3.16999 40.186 3.16999 33.5048V16.4066L0 16.236V14.7363L3.16999 14.907V8.9172C10.3631 8.9172 13.12 5.23535 13.12 5.23535H14.2155V14.9608C16.2271 14.9608 18.1848 14.8441 20.5465 14.7273V16.227C18.1309 16.3977 16.29 16.4605 14.2155 16.5144V36.3156C14.2155 38.2732 15.1405 39.4856 16.6941 39.4856C19.1726 39.4856 21.3547 36.0911 21.3547 36.0911H22.3875Z" fill="black"/>
<path d="M59.0432 41.7845V43.2842C53.8617 42.8262 48.5634 42.8262 43.2741 43.2842V41.7845C44.0823 41.7306 44.8277 41.6139 45.6269 41.6139L45.4563 20.771C45.4563 18.984 44.5942 17.601 42.4659 17.601C40.1042 17.601 38.371 19.1007 37.5089 20.0795V41.6049L39.8707 41.7755V43.2752C34.6263 42.8172 29.3909 42.8172 24.1016 43.2752V41.7755C24.9098 41.7217 25.6551 41.6049 26.4633 41.6049V6.78896C25.6551 6.78896 24.9098 6.7261 24.1016 6.61833V5.11865C28.1875 5.52276 32.3363 5.57664 36.4762 1.60742H37.5089V18.9391C39.3498 16.5234 42.8072 13.4702 47.9258 13.4702C53.4396 13.4702 56.6725 16.9814 56.6725 23.5998V41.6139L59.0253 41.7845H59.0432Z" fill="black"/>
<path d="M73.6544 27.5153V28.557C73.6544 38.9201 74.4626 41.4525 79.3478 41.4525C86.0829 41.4525 89.0194 34.7174 89.0194 34.7174L89.8276 35.2382C89.8276 35.2382 87.4119 43.6436 77.7403 43.6436C68.0687 43.6436 62.4292 37.8335 62.4292 28.566C62.4292 19.2985 68.0148 13.65 76.995 13.2549H77.7403C85.9122 13.5422 90.0072 18.7866 90.6897 26.8957V27.5243H73.6544V27.5153ZM73.6544 26.1414H80.7307C80.614 16.9278 79.8686 14.7456 77.453 14.566C74.8577 14.7366 73.825 16.9278 73.6544 26.1414Z" fill="black"/>
<path d="M143.513 28.5031C143.45 37.3126 139.373 43.6436 132.404 43.6436C127.734 43.6436 124.636 39.7822 124.636 39.7822V52.7944L126.989 52.965V54.4647C121.754 54.0067 116.518 54.0067 111.229 54.4647V52.965C112.028 52.9111 112.783 52.7944 113.591 52.7944V16.4159C112.783 16.4159 112.028 16.353 111.229 16.2453V14.7456C115.315 14.9252 119.455 14.9252 123.595 13.4794H124.636V17.1074C124.636 17.1074 127.743 13.2549 132.404 13.2549C139.364 13.2549 143.45 19.5859 143.513 28.3954V28.5121V28.5031ZM132.117 28.4403C132.117 20.5557 131.371 16.4698 128.201 16.4698C125.031 16.4698 124.636 20.1516 124.636 20.1516V36.7289C124.636 36.7289 125.04 40.4198 128.201 40.4198C131.362 40.4198 132.117 36.3338 132.117 28.4403Z" fill="black"/>
<path d="M163.483 41.7845V43.2842C158.248 42.8262 153.003 42.8262 147.714 43.2842V41.7845C148.522 41.7306 149.276 41.6139 150.076 41.6139V6.78896C149.276 6.78896 148.522 6.7261 147.714 6.61833V5.11865C151.809 5.52276 155.949 5.57664 160.088 1.60742H161.121V41.6139L163.483 41.7845Z" fill="black"/>
<path d="M177.287 26.9405C179.64 26.9405 181.597 27.5691 182.872 28.2067V18.0142C182.872 16.1105 182.522 14.2785 179.415 14.2785C176.308 14.2785 175.329 16.1194 175.329 16.1194C177.116 17.215 178.266 18.7147 178.266 20.2054C178.266 22.6839 176.2 24.7583 173.425 24.7583C170.65 24.7583 169.052 22.6839 169.052 20.2054C169.052 15.886 174.063 13.2368 180.448 13.2368C190.29 13.2368 193.909 17.8436 193.909 23.7705V37.2407C193.909 39.0816 194.654 40.0605 196.037 40.0605C197.878 40.0605 198.345 38.3363 198.345 38.3363H199.09C199.09 38.3363 198.058 43.6346 191.502 43.6346C187.129 43.6346 184.767 42.5929 183.618 40.3478C182.81 41.6769 180.798 43.6346 176.362 43.6346C170.381 43.6346 166.978 40.8148 166.978 35.2292C166.978 30.0476 171.001 26.9405 177.278 26.9405M181.427 40.4107C182.289 40.4107 182.917 40.0694 183.321 39.6653C183.034 38.6326 182.863 37.4203 182.863 36.0374V29.0778H182.513C179.056 29.0778 177.394 31.4934 177.394 34.834C177.394 38.3453 178.894 40.4197 181.418 40.4197" fill="black"/>
<path d="M235.926 41.7845V43.2842C230.69 42.8262 225.446 42.8262 220.156 43.2842V41.7845L222.348 41.6139V20.4926C222.348 18.7056 221.485 17.3226 219.357 17.3226C217.049 17.3226 215.388 18.7595 214.463 19.7383V41.6139C215.271 41.6139 216.07 41.7306 216.879 41.7845V43.2842C211.643 42.8262 206.408 42.8262 201.11 43.2842V41.7845L203.408 41.6139V16.4067C202.6 16.4067 201.855 16.3438 201.056 16.2271V14.7274C202.088 14.7903 203.184 14.7903 204.226 14.7903C207.27 14.7903 210.377 14.5568 213.43 13.4612H214.463V18.5799C216.304 16.1642 219.752 13.1738 224.817 13.1738C230.286 13.1738 233.447 16.6851 233.447 23.3034V41.551C234.255 41.6049 235.117 41.7217 235.926 41.7845Z" fill="black"/>
<path d="M272.286 41.7845V43.2842C267.051 42.8262 261.806 42.8262 256.517 43.2842V41.7845L258.708 41.6139V20.4926C258.708 18.7056 257.846 17.3226 255.718 17.3226C253.41 17.3226 251.749 18.7595 250.833 19.7383V41.6139C251.632 41.6139 252.44 41.7306 253.248 41.7845V43.2842C248.013 42.8262 242.777 42.8262 237.479 43.2842V41.7845L239.787 41.6139V16.4067C238.979 16.4067 238.234 16.3438 237.425 16.2271V14.7274C238.458 14.7903 239.554 14.7903 240.595 14.7903C243.64 14.7903 246.747 14.5568 249.8 13.4612H250.842V18.5799C252.683 16.1642 256.131 13.1738 261.196 13.1738C266.665 13.1738 269.835 16.6851 269.835 23.3034V41.551C270.643 41.6049 271.496 41.7217 272.304 41.7845" fill="black"/>
<path d="M289.269 41.7935V43.2932C284.033 42.8352 278.798 42.8352 273.5 43.2932V41.7935C274.308 41.7396 275.053 41.6229 275.852 41.6229V16.4067C275.053 16.4067 274.299 16.3528 273.5 16.2361V14.7364C277.585 14.907 281.734 14.907 285.874 13.4702H286.907V41.6229L289.269 41.7935ZM275.17 5.70238C275.17 2.47852 277.756 0 281.043 0C284.33 0 286.907 2.47852 286.907 5.70238C286.907 8.92625 284.267 11.5125 281.043 11.5125C277.819 11.5125 275.17 8.98013 275.17 5.70238Z" fill="black"/>
<path d="M328.396 41.7845V43.2842C323.16 42.8262 317.925 42.8262 312.627 43.2842V41.7845L314.818 41.6139V20.4926C314.818 18.7056 313.956 17.3226 311.827 17.3226C309.519 17.3226 307.849 18.7595 306.933 19.7383V41.6139C307.732 41.6139 308.541 41.7306 309.349 41.7845V43.2842C304.113 42.8262 298.878 42.8262 293.589 43.2842V41.7845L295.888 41.6139V16.4067C295.079 16.4067 294.334 16.3438 293.526 16.2271V14.7274C294.568 14.7903 295.654 14.7903 296.696 14.7903C299.74 14.7903 302.856 14.5568 305.909 13.4612H306.942V18.5799C308.783 16.1642 312.231 13.1738 317.296 13.1738C322.765 13.1738 325.926 16.6851 325.926 23.3034V41.551C326.734 41.6049 327.588 41.7217 328.396 41.7845Z" fill="black"/>
<path d="M360.094 50.478V50.7654C360.04 53.8186 359.519 55.6596 358.774 56.9886C358.082 58.2009 356.762 59.0002 355.263 59.0002C353.018 59.0002 351.231 57.1592 351.231 54.9771C351.231 52.7949 353.018 50.8911 355.263 50.8911C356.646 50.8911 357.849 51.5826 358.54 52.6153C358.944 52.2112 359.061 51.8071 359.061 51.403C359.007 49.9662 357.562 49.2747 355.317 49.2747H338.982C333.683 49.2747 331.384 47.6044 331.384 43.6891C331.384 40.5191 333.288 37.3581 335.982 35.9751C331.726 34.0175 329.31 30.2817 329.31 25.3875C329.31 18.0238 334.95 13.2374 343.984 13.2374C348.474 13.2374 352.102 14.3869 354.625 16.5242C355.541 16.0033 356.286 15.1951 356.286 14.333C356.286 13.1836 355.604 12.9501 355.604 12.9501C353.413 12.546 351.976 10.705 351.976 8.40612C351.976 5.69412 354.05 3.79932 356.583 3.79932C359.115 3.79932 361.243 5.81086 361.243 8.28938C361.243 12.2586 358.478 15.5992 355.604 17.3863C357.562 19.4517 358.594 22.1637 358.594 25.3875C358.594 32.868 353.009 37.5377 343.975 37.5377C341.442 37.5377 339.134 37.1336 337.186 36.4421C336.261 36.8462 335.228 37.5377 335.228 38.6871C335.228 39.666 335.686 40.2946 337.76 40.2946H351.222C356.116 40.2946 359.968 43.1772 360.085 50.3074V50.478H360.094ZM340.302 25.3786C340.302 34.4126 341.164 36.3702 343.984 36.3702C346.974 36.3702 347.612 34.4126 347.612 25.3786C347.612 16.3446 346.974 14.4408 343.984 14.4408C341.164 14.4408 340.302 16.3356 340.302 25.3786Z" fill="black"/>
<path d="M407.168 35.2202C407.168 35.2202 404.752 43.6256 395.089 43.6256C385.427 43.6256 379.778 37.8154 379.778 28.5479C379.778 19.2804 385.651 13.2907 395.089 13.2368C401.932 13.2368 406.135 16.748 406.135 20.5466C406.135 23.3125 404.07 25.3869 401.411 25.3869C398.601 25.3869 396.293 23.2586 396.293 20.5466C396.293 19.1098 396.814 17.9604 397.909 16.9815C398.08 15.2484 396.418 14.5659 395.098 14.5659C392.045 14.6198 391.003 16.9187 391.003 28.5569C391.003 38.911 391.812 41.4524 396.697 41.4524C403.432 41.4524 406.36 34.7173 406.36 34.7173L407.168 35.2381V35.2202Z" fill="black"/>
<path d="M409.979 28.5562C409.979 19.2349 415.915 13.2451 425.227 13.2451C434.54 13.2451 440.368 19.2349 440.368 28.5562C440.368 37.8776 434.495 43.6429 425.227 43.6429C415.96 43.6429 409.979 37.8237 409.979 28.5562ZM428.972 28.5562C428.972 16.927 428.227 14.4574 425.236 14.4574C422.246 14.4574 421.384 16.936 421.384 28.5562C421.384 40.1765 422.237 42.3767 425.236 42.3767C428.236 42.3767 428.972 39.8981 428.972 28.5562Z" fill="black"/>
<path d="M443.475 38.5072C443.475 35.6246 445.774 33.4424 448.656 33.4424C451.539 33.4424 453.892 35.6335 453.892 38.5072C453.892 41.3808 451.53 43.6258 448.656 43.6258C445.782 43.6258 443.475 41.3808 443.475 38.5072Z" fill="black"/>
</svg>
