<svg width="279" height="144" viewBox="0 0 279 144" fill="none" xmlns="http://www.w3.org/2000/svg">
<path d="M93.7551 38.4706C91.3135 42.9024 87.1997 46.8828 81.937 46.8828C75.833 46.8828 72.3039 43.0255 72.3039 35.5776V16.5065L68.7749 16.3115V14.6394L72.3039 14.8343V8.15578C80.3263 8.15578 83.4142 4.04199 83.4142 4.04199H84.635V14.8958C86.8817 14.8958 89.0669 14.7727 91.7034 14.6394V16.3115C89.0053 16.5065 86.9535 16.568 84.635 16.6296V38.7271C84.635 40.9122 85.6609 42.2561 87.3947 42.2561C90.1543 42.2561 92.5959 38.4706 92.5959 38.4706H93.7551Z" fill="white"/>
<path d="M134.658 44.8311V46.5032C128.872 45.9903 122.973 45.9903 117.064 46.5032V44.8311C117.967 44.7695 118.798 44.6361 119.7 44.6361L119.506 21.3896C119.506 19.3994 118.541 17.8606 116.171 17.8606C113.535 17.8606 111.617 19.5328 110.652 20.6202V44.6361L113.289 44.8311V46.5032C107.441 45.9903 101.594 45.9903 95.6948 46.5032V44.8311C96.5976 44.7695 97.4286 44.6361 98.3313 44.6361V5.78598C97.4286 5.78598 96.5976 5.72442 95.6948 5.59106V3.91887C100.25 4.37026 104.876 4.43181 109.503 0H110.662V19.3276C112.714 16.6296 116.572 13.2236 122.286 13.2236C128.451 13.2236 132.052 17.1425 132.052 24.5288V44.6259L134.689 44.8208L134.658 44.8311Z" fill="white"/>
<path d="M150.969 28.8983V30.0472C150.969 41.6089 151.872 44.4301 157.33 44.4301C164.839 44.4301 168.122 36.9207 168.122 36.9207L169.025 37.4952C169.025 37.4952 166.327 46.8717 155.535 46.8717C144.742 46.8717 138.454 40.3881 138.454 30.0472C138.454 19.7064 144.681 13.4177 154.704 12.9663H155.535C164.655 13.2843 169.21 19.1319 169.979 28.1904V28.8983H150.969ZM150.969 27.3594H158.869C158.735 17.0801 157.904 14.6385 155.206 14.4538C152.313 14.6488 151.164 17.0904 150.969 27.3594Z" fill="white"/>
<path d="M36.0187 79.618C35.9572 89.446 31.392 96.504 23.6261 96.504C18.4248 96.504 14.9574 92.2056 14.9574 92.2056V106.722L17.5939 106.917V108.589C11.7464 108.076 5.90908 108.076 0 108.589V106.917C0.902776 106.855 1.73374 106.722 2.63652 106.722V66.1379C1.73374 66.1379 0.902776 66.0764 0 65.943V64.2708C4.55492 64.4657 9.18165 64.4657 13.8084 62.8551H14.9676V66.8971C14.9676 66.8971 18.4351 62.5986 23.6363 62.5986C31.4125 62.5986 35.9674 69.667 36.029 79.4847V79.618H36.0187ZM23.2978 79.5565C23.2978 70.7544 22.4668 66.1995 18.9275 66.1995C15.3882 66.1995 14.9471 70.3133 14.9471 70.3133V88.8099C14.9471 88.8099 15.3985 92.9237 18.9275 92.9237C22.4566 92.9237 23.2978 88.3688 23.2978 79.5667" fill="white"/>
<path d="M58.3019 94.4531V96.1253C52.4544 95.6124 46.6171 95.6124 40.708 96.1253V94.4531C41.6108 94.3916 42.4417 94.2582 43.3445 94.2582V55.408C42.4417 55.408 41.6108 55.3465 40.708 55.2131V53.5409C45.2629 53.9923 49.8897 54.0539 54.5164 49.6221H55.6756V94.2582L58.3121 94.4531H58.3019Z" fill="white"/>
<path d="M73.7101 77.8843C76.3466 77.8843 78.5317 78.5921 79.9372 79.3V67.9332C79.9372 65.8199 79.5474 63.7579 76.0799 63.7579C72.6124 63.7579 71.525 65.8096 71.525 65.8096C73.5152 67.0304 74.7975 68.7026 74.7975 70.3646C74.7975 73.1242 72.4893 75.4324 69.4014 75.4324C66.3135 75.4324 64.5182 73.1242 64.5182 70.3646C64.5182 65.5429 70.1093 62.5986 77.2391 62.5986C88.2161 62.5986 92.2683 67.7383 92.2683 74.3552V89.3844C92.2683 91.4362 93.0993 92.5339 94.6484 92.5339C96.7001 92.5339 97.2233 90.6052 97.2233 90.6052H98.0543C98.0543 90.6052 96.895 96.5143 89.5805 96.5143C84.6973 96.5143 82.071 95.3653 80.7784 92.8519C79.8757 94.3292 77.629 96.5143 72.6842 96.5143C66.0057 96.5143 62.2202 93.3648 62.2202 87.1377C62.2202 81.3518 66.7136 77.8843 73.7204 77.8843M78.3471 92.9135C79.3114 92.9135 80.0193 92.5236 80.4604 92.0825C80.1424 90.9232 79.9475 89.5793 79.9475 88.0405V80.2643H79.5576C75.7003 80.2643 73.8435 82.9624 73.8435 86.6863C73.8435 90.6052 75.5157 92.9135 78.3368 92.9135" fill="white"/>
<path d="M139.151 94.4523V96.1245C133.303 95.6115 127.466 95.6115 121.557 96.1245V94.4523L123.999 94.2574V70.6929C123.999 68.7027 123.034 67.1638 120.665 67.1638C118.1 67.1638 116.233 68.7745 115.207 69.8619V94.2676C116.11 94.2676 117.002 94.401 117.905 94.4626V96.1348C112.057 95.6218 106.22 95.6218 100.311 96.1348V94.4626L102.876 94.2676V66.138C101.973 66.138 101.142 66.0764 100.239 65.943V64.2709C101.399 64.3324 102.619 64.3324 103.768 64.3324C107.174 64.3324 110.642 64.0759 114.048 62.8551H115.207V68.5693C117.259 65.8712 121.116 62.5371 126.769 62.5371C132.873 62.5371 136.402 66.456 136.402 73.8423V94.1958C137.304 94.2574 138.269 94.3908 139.161 94.4523" fill="white"/>
<path d="M179.735 94.4523V96.1245C173.887 95.6115 168.05 95.6115 162.141 96.1245V94.4523L164.583 94.2574V70.6929C164.583 68.7027 163.618 67.1638 161.249 67.1638C158.684 67.1638 156.817 68.7745 155.791 69.8619V94.2676C156.694 94.2676 157.586 94.401 158.489 94.4626V96.1348C152.641 95.6218 146.804 95.6218 140.895 96.1348V94.4626L143.46 94.2676V66.138C142.557 66.138 141.726 66.0764 140.823 65.943V64.2709C141.982 64.3324 143.203 64.3324 144.352 64.3324C147.758 64.3324 151.226 64.0759 154.632 62.8551H155.791V68.5693C157.843 65.8712 161.7 62.5371 167.353 62.5371C173.457 62.5371 176.986 66.456 176.986 73.8423V94.1958C177.888 94.2574 178.853 94.3908 179.745 94.4523" fill="white"/>
<path d="M198.683 94.453V96.1252C192.835 95.6123 186.998 95.6123 181.089 96.1252V94.453C181.981 94.3915 182.823 94.2581 183.725 94.2581V66.1284C182.823 66.1284 181.992 66.0668 181.089 65.9335V64.2613C185.644 64.4562 190.271 64.4562 194.897 62.8456H196.056V94.2478L198.693 94.4428L198.683 94.453ZM182.946 54.1871C182.946 50.5863 185.839 47.8267 189.501 47.8267C193.163 47.8267 196.046 50.5863 196.046 54.1871C196.046 57.788 193.092 60.6707 189.501 60.6707C185.911 60.6707 182.946 57.8495 182.946 54.1871Z" fill="white"/>
<path d="M242.344 94.4523V96.1245C236.496 95.6115 230.659 95.6115 224.75 96.1245V94.4523L227.192 94.2574V70.6929C227.192 68.7027 226.227 67.1638 223.857 67.1638C221.293 67.1638 219.426 68.7745 218.4 69.8619V94.2676C219.303 94.2676 220.195 94.401 221.098 94.4626V96.1348C215.25 95.6218 209.403 95.6218 203.504 96.1348V94.4626L206.069 94.2676V66.138C205.166 66.138 204.335 66.0764 203.432 65.943V64.2709C204.591 64.3324 205.812 64.3324 206.961 64.3324C210.367 64.3324 213.835 64.0759 217.241 62.8551H218.4V68.5693C220.452 65.8712 224.309 62.5371 229.961 62.5371C236.065 62.5371 239.594 66.456 239.594 73.8423V94.1958C240.497 94.2574 241.462 94.3908 242.354 94.4523" fill="white"/>
<path d="M277.728 104.158V104.476C277.666 107.882 277.082 109.934 276.251 111.411C275.481 112.755 274.004 113.657 272.332 113.657C269.829 113.657 267.838 111.606 267.838 109.164C267.838 106.722 269.829 104.609 272.332 104.609C273.871 104.609 275.225 105.379 275.994 106.538C276.446 106.086 276.569 105.635 276.569 105.194C276.507 103.583 274.896 102.814 272.393 102.814H254.153C248.244 102.814 245.669 100.947 245.669 96.5868C245.669 93.0577 247.793 89.5184 250.809 87.9796C246.059 85.7945 243.361 81.6191 243.361 76.1615C243.361 67.9441 249.66 62.6095 259.734 62.6095C264.74 62.6095 268.792 63.8919 271.614 66.2719C272.64 65.6974 273.47 64.7947 273.47 63.8303C273.47 62.548 272.701 62.2915 272.701 62.2915C270.259 61.8401 268.659 59.7884 268.659 57.2134C268.659 54.1973 270.978 52.0737 273.799 52.0737C276.62 52.0737 279 54.3204 279 57.08C279 61.5119 275.922 65.2358 272.701 67.226C274.886 69.5343 276.045 72.5504 276.045 76.1512C276.045 84.5019 269.818 89.7031 259.734 89.7031C256.913 89.7031 254.338 89.2517 252.153 88.4823C251.127 88.9337 249.968 89.7031 249.968 90.9855C249.968 92.0729 250.48 92.7808 252.799 92.7808H267.828C273.286 92.7808 277.595 95.9918 277.718 103.953V104.148L277.728 104.158ZM255.63 76.1615C255.63 86.2459 256.595 88.431 259.744 88.431C263.078 88.431 263.786 86.2459 263.786 76.1615C263.786 66.077 263.078 63.9637 259.744 63.9637C256.595 63.9637 255.63 66.0873 255.63 76.1615Z" fill="white"/>
<path d="M227.777 133.713C227.777 133.713 225.079 143.09 214.286 143.09C203.494 143.09 197.206 136.606 197.206 126.266C197.206 115.925 203.751 109.246 214.286 109.185C221.929 109.185 226.618 113.103 226.618 117.34C226.618 120.418 224.309 122.736 221.355 122.736C218.205 122.736 215.641 120.356 215.641 117.34C215.641 115.73 216.215 114.447 217.436 113.36C217.631 111.431 215.764 110.662 214.286 110.662C210.881 110.723 209.721 113.298 209.721 126.266C209.721 137.827 210.624 140.648 216.082 140.648C223.591 140.648 226.874 133.129 226.874 133.129L227.777 133.703V133.713Z" fill="white"/>
<path d="M230.916 126.266C230.916 115.863 237.532 109.185 247.935 109.185C258.337 109.185 264.821 115.863 264.821 126.266C264.821 136.668 258.276 143.09 247.935 143.09C237.594 143.09 230.916 136.606 230.916 126.266ZM252.11 126.266C252.11 113.288 251.279 110.528 247.935 110.528C244.591 110.528 243.636 113.288 243.636 126.266C243.636 139.243 244.601 141.674 247.935 141.674C251.269 141.674 252.11 138.915 252.11 126.266Z" fill="white"/>
<path d="M268.299 138.658C268.299 136.165 270.29 134.277 272.782 134.277C275.275 134.277 277.317 136.165 277.317 138.658C277.317 141.151 275.275 143.09 272.782 143.09C270.29 143.09 268.299 141.151 268.299 138.658Z" fill="white"/>
</svg>
