<svg width="256" height="256" viewBox="0 0 256 256" fill="none" xmlns="http://www.w3.org/2000/svg">
<rect width="256" height="256" fill="white"/>
<path d="M89.3839 102.113C87.4728 105.582 84.2528 108.698 80.1335 108.698C75.3558 108.698 72.5935 105.678 72.5935 99.8489V84.9215L69.8313 84.7689V83.46L72.5935 83.6126V78.3852C78.8728 78.3852 81.2898 75.1653 81.2898 75.1653H82.2454V83.6608C84.0039 83.6608 85.7142 83.5644 87.7779 83.46V84.7689C85.6661 84.9215 84.0601 84.9696 82.2454 85.0178V102.314C82.2454 104.024 83.0483 105.076 84.4054 105.076C86.5654 105.076 88.4765 102.113 88.4765 102.113H89.3839Z" fill="black"/>
<path d="M121.4 107.09V108.399C116.871 107.998 112.254 107.998 107.628 108.399V107.09C108.335 107.042 108.985 106.938 109.692 106.938L109.539 88.7421C109.539 87.1843 108.785 85.9799 106.93 85.9799C104.866 85.9799 103.365 87.2887 102.61 88.1399V106.938L104.673 107.09V108.399C100.096 107.998 95.5195 107.998 90.9023 108.399V107.09C91.609 107.042 92.2594 106.938 92.966 106.938V76.5288C92.2594 76.5288 91.609 76.4806 90.9023 76.3762V75.0674C94.4676 75.4207 98.089 75.4689 101.71 72H102.618V87.1281C104.224 85.0163 107.243 82.3504 111.716 82.3504C116.541 82.3504 119.36 85.4178 119.36 91.1992V106.93L121.424 107.082L121.4 107.09Z" fill="black"/>
<path d="M134.166 94.6199V95.5192C134.166 104.569 134.872 106.777 139.144 106.777C145.022 106.777 147.591 100.899 147.591 100.899L148.298 101.349C148.298 101.349 146.186 108.688 137.739 108.688C129.291 108.688 124.369 103.613 124.369 95.5192C124.369 87.4252 129.243 82.5029 137.088 82.1496H137.739C144.877 82.3986 148.443 86.9755 149.045 94.0658V94.6199H134.166V94.6199ZM134.166 93.4154H140.348C140.244 85.3696 139.594 83.4585 137.482 83.3139C135.217 83.4665 134.318 85.3776 134.166 93.4154Z" fill="black"/>
<path d="M44.1926 134.318C44.1444 142.011 40.5712 147.535 34.4926 147.535C30.4215 147.535 27.7074 144.171 27.7074 144.171V155.533L29.7711 155.685V156.994C25.1941 156.593 20.6252 156.593 16 156.994V155.685C16.7066 155.637 17.357 155.533 18.0637 155.533V123.767C17.357 123.767 16.7066 123.719 16 123.614V122.306C19.5652 122.458 23.1867 122.458 26.8081 121.197H27.7155V124.361C27.7155 124.361 30.4295 120.997 34.5006 120.997C40.5872 120.997 44.1525 126.529 44.2006 134.214V134.318H44.1926ZM34.2357 134.27C34.2357 127.38 33.5852 123.815 30.815 123.815C28.0447 123.815 27.6994 127.035 27.6994 127.035V141.513C27.6994 141.513 28.0527 144.733 30.815 144.733C33.5772 144.733 34.2357 141.168 34.2357 134.278" fill="black"/>
<path d="M61.6344 145.93V147.239C57.0574 146.837 52.4884 146.837 47.8633 147.239V145.93C48.5699 145.882 49.2203 145.777 49.9269 145.777V115.368C49.2203 115.368 48.5699 115.32 47.8633 115.216V113.907C51.4285 114.26 55.05 114.308 58.6714 110.84H59.5788V145.777L61.6424 145.93H61.6344Z" fill="black"/>
<path d="M73.6945 132.961C75.7581 132.961 77.4685 133.515 78.5685 134.069V125.172C78.5685 123.518 78.2634 121.904 75.5493 121.904C72.8353 121.904 71.9841 123.51 71.9841 123.51C73.5419 124.466 74.5456 125.774 74.5456 127.075C74.5456 129.235 72.7389 131.042 70.3219 131.042C67.905 131.042 66.4998 129.235 66.4998 127.075C66.4998 123.301 70.876 120.997 76.4567 120.997C85.0486 120.997 88.2203 125.02 88.2203 130.199V141.963C88.2203 143.568 88.8708 144.428 90.0833 144.428C91.6892 144.428 92.0987 142.918 92.0987 142.918H92.7491C92.7491 142.918 91.8418 147.543 86.1165 147.543C82.2944 147.543 80.2387 146.644 79.227 144.677C78.5204 145.833 76.7618 147.543 72.8915 147.543C67.6641 147.543 64.7011 145.078 64.7011 140.204C64.7011 135.675 68.2181 132.961 73.7025 132.961M77.3239 144.725C78.0787 144.725 78.6328 144.42 78.9781 144.074C78.7291 143.167 78.5766 142.115 78.5766 140.911V134.824H78.2714C75.2522 134.824 73.7988 136.936 73.7988 139.851C73.7988 142.918 75.1077 144.725 77.3159 144.725" fill="black"/>
<path d="M124.916 145.93V147.239C120.339 146.837 115.771 146.837 111.145 147.239V145.93L113.056 145.777V127.333C113.056 125.775 112.302 124.571 110.447 124.571C108.439 124.571 106.978 125.831 106.175 126.683V145.786C106.882 145.786 107.58 145.89 108.287 145.938V147.247C103.71 146.845 99.1408 146.845 94.5157 147.247V145.938L96.5231 145.786V123.768C95.8165 123.768 95.1661 123.72 94.4594 123.615V122.306C95.3668 122.355 96.3224 122.355 97.2217 122.355C99.8876 122.355 102.602 122.154 105.268 121.198H106.175V125.671C107.781 123.559 110.8 120.949 115.224 120.949C120.002 120.949 122.764 124.017 122.764 129.798V145.729C123.471 145.777 124.226 145.882 124.924 145.93" fill="black"/>
<path d="M156.682 145.93V147.239C152.105 146.837 147.536 146.837 142.91 147.239V145.93L144.822 145.777V127.333C144.822 125.775 144.067 124.571 142.212 124.571C140.204 124.571 138.743 125.831 137.94 126.683V145.786C138.647 145.786 139.345 145.89 140.052 145.938V147.247C135.475 146.845 130.906 146.845 126.281 147.247V145.938L128.288 145.786V123.768C127.582 123.768 126.931 123.72 126.225 123.615V122.306C127.132 122.355 128.087 122.355 128.987 122.355C131.653 122.355 134.367 122.154 137.033 121.198H137.94V125.671C139.546 123.559 142.565 120.949 146.99 120.949C151.767 120.949 154.53 124.017 154.53 129.798V145.729C155.236 145.777 155.991 145.882 156.69 145.93" fill="black"/>
<path d="M171.514 145.93V147.239C166.937 146.837 162.368 146.837 157.743 147.239V145.93C158.441 145.882 159.1 145.778 159.806 145.778V123.76C159.1 123.76 158.449 123.712 157.743 123.607V122.298C161.308 122.451 164.929 122.451 168.551 121.19H169.458V145.769L171.522 145.922L171.514 145.93ZM159.196 114.413C159.196 111.595 161.46 109.435 164.327 109.435C167.194 109.435 169.45 111.595 169.45 114.413C169.45 117.232 167.138 119.488 164.327 119.488C161.517 119.488 159.196 117.28 159.196 114.413Z" fill="black"/>
<path d="M205.687 145.93V147.239C201.111 146.837 196.542 146.837 191.916 147.239V145.93L193.827 145.777V127.333C193.827 125.775 193.073 124.571 191.218 124.571C189.21 124.571 187.749 125.831 186.946 126.683V145.786C187.653 145.786 188.351 145.89 189.058 145.938V147.247C184.481 146.845 179.904 146.845 175.287 147.247V145.938L177.294 145.786V123.768C176.588 123.768 175.937 123.72 175.23 123.615V122.306C176.138 122.355 177.093 122.355 177.993 122.355C180.659 122.355 183.373 122.154 186.039 121.198H186.946V125.671C188.552 123.559 191.571 120.949 195.996 120.949C200.773 120.949 203.536 124.017 203.536 129.798V145.729C204.242 145.777 204.997 145.882 205.696 145.93" fill="black"/>
<path d="M233.383 153.526V153.775C233.335 156.441 232.877 158.047 232.226 159.203C231.624 160.255 230.468 160.962 229.159 160.962C227.2 160.962 225.642 159.356 225.642 157.445C225.642 155.534 227.2 153.879 229.159 153.879C230.363 153.879 231.423 154.482 232.026 155.389C232.379 155.036 232.475 154.682 232.475 154.337C232.427 153.076 231.166 152.474 229.207 152.474H214.93C210.305 152.474 208.29 151.013 208.29 147.6C208.29 144.838 209.952 142.068 212.313 140.863C208.595 139.153 206.483 135.885 206.483 131.613C206.483 125.181 211.413 121.005 219.298 121.005C223.217 121.005 226.389 122.009 228.597 123.872C229.4 123.422 230.05 122.716 230.05 121.961C230.05 120.957 229.448 120.757 229.448 120.757C227.537 120.403 226.284 118.797 226.284 116.782C226.284 114.421 228.099 112.759 230.307 112.759C232.515 112.759 234.378 114.517 234.378 116.677C234.378 120.146 231.969 123.061 229.448 124.619C231.158 126.426 232.066 128.786 232.066 131.605C232.066 138.141 227.192 142.212 219.298 142.212C217.09 142.212 215.075 141.859 213.364 141.257C212.561 141.61 211.654 142.212 211.654 143.216C211.654 144.067 212.056 144.621 213.87 144.621H225.634C229.906 144.621 233.278 147.134 233.375 153.366V153.518L233.383 153.526ZM216.087 131.613C216.087 139.506 216.841 141.216 219.306 141.216C221.916 141.216 222.47 139.506 222.47 131.613C222.47 123.72 221.916 122.065 219.306 122.065C216.841 122.065 216.087 123.728 216.087 131.613" fill="black"/>
<path d="M194.285 176.661C194.285 176.661 192.173 184 183.726 184C175.279 184 170.356 178.925 170.356 170.831C170.356 162.737 175.479 157.51 183.726 157.462C189.708 157.462 193.378 160.529 193.378 163.845C193.378 166.254 191.571 168.069 189.259 168.069C186.793 168.069 184.786 166.206 184.786 163.845C184.786 162.585 185.236 161.581 186.191 160.73C186.344 159.22 184.882 158.618 183.726 158.618C181.06 158.666 180.153 160.682 180.153 170.831C180.153 179.881 180.859 182.089 185.131 182.089C191.009 182.089 193.579 176.203 193.579 176.203L194.285 176.653V176.661Z" fill="black"/>
<path d="M196.742 170.831C196.742 162.689 201.921 157.462 210.064 157.462C218.206 157.462 223.281 162.689 223.281 170.831C223.281 178.973 218.158 184 210.064 184C201.97 184 196.742 178.925 196.742 170.831M213.332 170.831C213.332 160.673 212.681 158.513 210.064 158.513C207.446 158.513 206.699 160.673 206.699 170.831C206.699 180.989 207.454 182.892 210.064 182.892C212.673 182.892 213.332 180.732 213.332 170.831" fill="black"/>
<path d="M226.003 180.53C226.003 178.579 227.561 177.101 229.512 177.101C231.464 177.101 233.062 178.579 233.062 180.53C233.062 182.481 231.464 183.999 229.512 183.999C227.561 183.999 226.003 182.481 226.003 180.53Z" fill="black"/>
</svg>
