<svg width="101" height="101" viewBox="0 0 101 101" fill="none" xmlns="http://www.w3.org/2000/svg">
<path fill-rule="evenodd" clip-rule="evenodd" d="M85.9835 14.8694C76.5988 5.47366 64.1179 0.297014 50.8214 0.291504C23.4228 0.291504 1.12438 22.5894 1.11336 49.9953C1.10969 58.7561 3.39831 67.3081 7.74841 74.8463L0.696411 100.604L27.0474 93.6916C34.3082 97.6523 42.4825 99.7395 50.8012 99.7419H50.822C78.2176 99.7419 100.518 77.4422 100.529 50.0351C100.534 36.7527 95.3688 24.2645 85.9835 14.8694ZM50.8214 91.3473H50.8043C43.3911 91.3442 36.1205 89.3519 29.7763 85.5884L28.2683 84.6926L12.6312 88.7948L16.8049 73.5489L15.8223 71.9858C11.6865 65.4077 9.50253 57.8047 9.5062 49.9984C9.51478 27.2193 28.0491 8.6868 50.838 8.6868C61.8733 8.69047 72.2468 12.9934 80.047 20.8028C87.8472 28.6122 92.1403 38.9924 92.1367 50.032C92.1269 72.813 73.5938 91.3473 50.8214 91.3473ZM73.4836 60.4043C72.2419 59.7823 66.1353 56.7785 64.9965 56.3634C63.8589 55.9489 63.0299 55.7426 62.2027 56.9855C61.3743 58.2283 58.9945 61.0264 58.2696 61.8548C57.5447 62.6838 56.821 62.7878 55.5787 62.1658C54.3364 61.5443 50.3347 60.2323 45.5903 56.0009C41.8984 52.7076 39.4059 48.6404 38.681 47.3975C37.9573 46.1534 38.6748 45.546 39.2259 44.8627C40.5704 43.1931 41.9167 41.4427 42.3306 40.6143C42.7451 39.7853 42.5376 39.0597 42.2265 38.4383C41.9167 37.8169 39.4328 31.7034 38.3981 29.2158C37.3891 26.795 36.366 27.1219 35.6031 27.084C34.8794 27.0478 34.0511 27.0405 33.2227 27.0405C32.3949 27.0405 31.0491 27.3509 29.9103 28.595C28.7722 29.8385 25.5639 32.8429 25.5639 38.9563C25.5639 45.0697 30.0144 50.9755 30.6353 51.8045C31.2561 52.6335 39.3936 65.1787 51.8525 70.558C54.8158 71.8389 57.1289 72.6023 58.9333 73.1748C61.9088 74.1201 64.6156 73.9867 66.7561 73.6671C69.1427 73.3101 74.1038 70.6621 75.1397 67.7612C76.1745 64.8597 76.1745 62.3733 75.8634 61.8548C75.5536 61.3368 74.7253 61.0264 73.4836 60.4043Z" fill="white"/>
</svg>
