<svg width="54" height="55" viewBox="0 0 54 55" fill="none" xmlns="http://www.w3.org/2000/svg">
<path fill-rule="evenodd" clip-rule="evenodd" d="M45.6592 8.20288C40.6663 3.10668 34.0261 0.298887 26.9521 0.295898C12.3753 0.295898 0.511871 12.3902 0.506008 27.255C0.504053 32.0069 1.72166 36.6454 4.03604 40.7341L0.28418 54.705L14.3036 50.9557C18.1666 53.104 22.5155 54.2361 26.9413 54.2374H26.9524C41.5276 54.2374 53.3923 42.1421 53.3978 27.2766C53.4007 20.0723 50.6525 13.2988 45.6592 8.20288ZM26.9521 49.6842H26.943C22.9989 49.6825 19.1308 48.6019 15.7555 46.5606L14.9532 46.0747L6.6338 48.2997L8.85436 40.0304L8.33155 39.1826C6.13119 35.6147 4.96928 31.4908 4.97123 27.2567C4.97579 14.9014 14.8366 4.84947 26.9609 4.84947C32.832 4.85146 38.351 7.18537 42.5009 11.4211C46.6508 15.6569 48.9349 21.2871 48.9329 27.275C48.9277 39.6312 39.0676 49.6842 26.9521 49.6842V49.6842ZM39.009 32.9008C38.3484 32.5634 35.0994 30.9342 34.4936 30.7091C33.8884 30.4842 33.4473 30.3723 33.0072 31.0465C32.5665 31.7206 31.3004 33.2382 30.9147 33.6876C30.529 34.1372 30.144 34.1937 29.4831 33.8563C28.8221 33.5192 26.6931 32.8075 24.169 30.5125C22.2048 28.7262 20.8787 26.5201 20.493 25.846C20.108 25.1712 20.4897 24.8418 20.7829 24.4711C21.4982 23.5655 22.2145 22.6161 22.4347 22.1668C22.6553 21.7172 22.5448 21.3236 22.3794 20.9866C22.2145 20.6495 20.893 17.3336 20.3425 15.9843C19.8057 14.6713 19.2614 14.8486 18.8555 14.828C18.4705 14.8084 18.0298 14.8044 17.589 14.8044C17.1486 14.8044 16.4327 14.9728 15.8268 15.6476C15.2213 16.3221 13.5144 17.9516 13.5144 21.2675C13.5144 24.5834 15.8822 27.7867 16.2125 28.2363C16.5428 28.686 20.8722 35.4904 27.5006 38.4082C29.0772 39.1029 30.3078 39.517 31.2678 39.8275C32.8509 40.3402 34.291 40.2678 35.4297 40.0945C36.6995 39.9009 39.3389 38.4646 39.8901 36.8912C40.4406 35.3174 40.4406 33.9688 40.2751 33.6876C40.1103 33.4066 39.6696 33.2382 39.009 32.9008V32.9008Z" fill="white"/>
</svg>
